<?xml version="1.0" encoding="UTF-8"?>
<svg xmlns="http://www.w3.org/2000/svg" xmlns:xlink="http://www.w3.org/1999/xlink" width="180px" height="180px" viewBox="0 0 180 180" version="1.1">
<g id="surface1">
<path style=" stroke:none;fill-rule:nonzero;fill:rgb(100%,30.980393%,9.803922%);fill-opacity:1;" d="M 111.199219 47.8125 C 112.183594 46.113281 113.601562 44.699219 115.296875 43.710938 C 114.664062 14.046875 92.363281 0.925781 91.398438 0.371094 C 90.964844 0.125 90.480469 0 90 0 L 90 47.8125 Z M 111.199219 47.8125 "/>
<path style=" stroke:none;fill-rule:nonzero;fill:rgb(89.803922%,0%,11.764706%);fill-opacity:1;" d="M 68.800781 47.8125 L 90 47.8125 L 90 0 C 89.519531 0 89.035156 0.125 88.601562 0.371094 C 87.636719 0.925781 65.335938 14.046875 64.703125 43.710938 C 66.398438 44.699219 67.816406 46.113281 68.800781 47.8125 Z M 68.800781 47.8125 "/>
<path style=" stroke:none;fill-rule:nonzero;fill:rgb(36.078432%,32.941177%,41.568628%);fill-opacity:1;" d="M 90 53.4375 L 90 47.8125 L 68.800781 47.8125 C 69.761719 49.46875 70.3125 51.390625 70.3125 53.4375 L 70.3125 91.65625 C 70.359375 91.605469 70.40625 91.554688 70.457031 91.507812 L 75.9375 86.023438 L 75.9375 67.5 C 75.9375 59.746094 82.246094 53.4375 90 53.4375 Z M 90 53.4375 "/>
<path style=" stroke:none;fill-rule:nonzero;fill:rgb(53.333336%,52.549022%,57.647061%);fill-opacity:1;" d="M 120.9375 119.769531 C 120.984375 119.816406 121.03125 119.867188 121.078125 119.914062 L 132.042969 130.878906 C 132.09375 130.929688 132.140625 130.980469 132.1875 131.03125 L 132.1875 59.0625 L 120.9375 59.0625 Z M 120.9375 119.769531 "/>
<path style=" stroke:none;fill-rule:nonzero;fill:rgb(71.372551%,72.156864%,74.509805%);fill-opacity:1;" d="M 132.1875 59.0625 L 132.1875 53.4375 C 132.1875 47.234375 127.140625 42.1875 120.9375 42.1875 L 120.9375 59.0625 Z M 132.1875 59.0625 "/>
<path style=" stroke:none;fill-rule:nonzero;fill:rgb(53.333336%,52.549022%,57.647061%);fill-opacity:1;" d="M 59.0625 59.0625 L 59.0625 119.769531 C 62.6875 116.066406 64.6875 111.183594 64.6875 105.992188 L 64.6875 105.429688 C 64.6875 100.234375 66.6875 95.355469 70.3125 91.65625 L 70.3125 59.0625 Z M 59.0625 59.0625 "/>
<path style=" stroke:none;fill-rule:nonzero;fill:rgb(36.078432%,32.941177%,41.568628%);fill-opacity:1;" d="M 58.921875 119.914062 C 58.96875 119.867188 59.015625 119.816406 59.0625 119.769531 L 59.0625 59.0625 L 47.8125 59.0625 L 47.8125 131.03125 C 47.859375 130.980469 47.90625 130.929688 47.957031 130.878906 Z M 58.921875 119.914062 "/>
<path style=" stroke:none;fill-rule:nonzero;fill:rgb(36.078432%,32.941177%,41.568628%);fill-opacity:1;" d="M 109.6875 59.0625 L 109.6875 91.65625 C 113.3125 95.355469 115.3125 100.234375 115.3125 105.429688 L 115.3125 105.992188 C 115.3125 111.183594 117.3125 116.066406 120.9375 119.769531 L 120.9375 59.0625 Z M 109.6875 59.0625 "/>
<path style=" stroke:none;fill-rule:nonzero;fill:rgb(71.372551%,72.156864%,74.509805%);fill-opacity:1;" d="M 70.3125 59.0625 L 70.3125 53.4375 C 70.3125 51.390625 69.757812 49.46875 68.800781 47.8125 C 67.816406 46.113281 66.398438 44.699219 64.703125 43.710938 C 63.042969 42.746094 61.117188 42.1875 59.0625 42.1875 L 59.0625 59.0625 Z M 70.3125 59.0625 "/>
<path style=" stroke:none;fill-rule:nonzero;fill:rgb(36.078432%,32.941177%,41.568628%);fill-opacity:1;" d="M 50.710938 172.246094 C 51.023438 173.496094 52.148438 174.375 53.4375 174.375 L 64.6875 174.375 C 65.976562 174.375 67.101562 173.496094 67.414062 172.246094 L 69.695312 163.125 L 48.429688 163.125 Z M 50.710938 172.246094 "/>
<path style=" stroke:none;fill-rule:nonzero;fill:rgb(36.078432%,32.941177%,41.568628%);fill-opacity:1;" d="M 112.585938 172.246094 C 112.898438 173.496094 114.023438 174.375 115.3125 174.375 L 126.5625 174.375 C 127.851562 174.375 128.976562 173.496094 129.289062 172.246094 L 131.570312 163.125 L 110.304688 163.125 Z M 112.585938 172.246094 "/>
<path style=" stroke:none;fill-rule:nonzero;fill:rgb(83.529413%,85.09804%,87.058824%);fill-opacity:1;" d="M 73.132812 146.25 C 73.246094 144.785156 74.46875 143.652344 75.9375 143.652344 L 75.9375 86.023438 L 70.457031 91.503906 C 70.40625 91.554688 70.359375 91.605469 70.3125 91.65625 C 66.6875 95.355469 64.6875 100.234375 64.6875 105.429688 L 64.6875 105.992188 C 64.6875 111.183594 62.6875 116.066406 59.0625 119.765625 C 59.015625 119.816406 58.96875 119.867188 58.921875 119.914062 L 47.957031 130.878906 C 47.90625 130.929688 47.859375 130.980469 47.8125 131.03125 C 44.1875 134.730469 42.1875 139.609375 42.1875 144.800781 L 42.1875 149.0625 L 72.875 149.0625 Z M 73.132812 146.25 "/>
<path style=" stroke:none;fill-rule:nonzero;fill:rgb(100%,30.980393%,9.803922%);fill-opacity:1;" d="M 42.1875 149.0625 L 42.1875 160.3125 C 42.1875 161.867188 43.445312 163.125 45 163.125 L 71.589844 163.125 L 72.875 149.0625 Z M 42.1875 149.0625 "/>
<path style=" stroke:none;fill-rule:nonzero;fill:rgb(83.529413%,85.09804%,87.058824%);fill-opacity:1;" d="M 132.1875 131.03125 C 132.140625 130.980469 132.09375 130.929688 132.042969 130.878906 L 121.078125 119.914062 C 121.03125 119.867188 120.984375 119.816406 120.9375 119.769531 C 117.3125 116.066406 115.3125 111.183594 115.3125 105.992188 L 115.3125 105.429688 C 115.3125 100.234375 113.3125 95.355469 109.6875 91.65625 C 109.640625 91.605469 109.59375 91.554688 109.546875 91.507812 L 104.0625 86.023438 L 104.0625 143.652344 C 105.535156 143.652344 106.753906 144.785156 106.867188 146.25 L 107.125 149.0625 L 137.8125 149.0625 L 137.8125 144.804688 C 137.8125 139.609375 135.8125 134.730469 132.1875 131.03125 Z M 132.1875 131.03125 "/>
<path style=" stroke:none;fill-rule:nonzero;fill:rgb(100%,30.980393%,9.803922%);fill-opacity:1;" d="M 108.414062 163.125 L 135 163.125 C 136.554688 163.125 137.8125 161.867188 137.8125 160.3125 L 137.8125 149.0625 L 107.125 149.0625 Z M 108.414062 163.125 "/>
<path style=" stroke:none;fill-rule:nonzero;fill:rgb(89.019608%,90.196079%,91.37255%);fill-opacity:1;" d="M 90 53.4375 C 82.246094 53.4375 75.9375 59.746094 75.9375 67.5 L 75.9375 143.652344 L 81.5625 143.652344 L 81.5625 71.640625 C 81.5625 71.632812 81.5625 71.628906 81.5625 71.621094 C 81.554688 71.167969 81.65625 70.726562 81.851562 70.324219 C 82.132812 69.761719 82.601562 69.285156 83.21875 69.003906 C 87.652344 67.007812 92.347656 67.007812 96.78125 69.003906 C 97.398438 69.285156 97.867188 69.757812 98.148438 70.324219 C 98.167969 70.328125 98.171875 70.339844 98.160156 70.355469 C 98.347656 70.75 98.445312 71.179688 98.4375 71.621094 C 98.4375 71.628906 98.4375 71.632812 98.4375 71.640625 L 98.4375 143.652344 L 104.0625 143.652344 L 104.0625 67.5 C 104.0625 59.746094 97.753906 53.4375 90 53.4375 Z M 90 53.4375 "/>
<path style=" stroke:none;fill-rule:nonzero;fill:rgb(83.529413%,85.09804%,87.058824%);fill-opacity:1;" d="M 98.4375 71.640625 C 98.429688 72.003906 98.347656 72.371094 98.191406 72.722656 C 97.722656 73.765625 96.695312 74.382812 95.621094 74.382812 C 95.238281 74.382812 94.84375 74.300781 94.46875 74.132812 C 91.503906 72.796875 88.496094 72.796875 85.53125 74.132812 C 84.101562 74.769531 82.445312 74.136719 81.808594 72.722656 C 81.652344 72.371094 81.570312 72.003906 81.5625 71.640625 L 81.5625 143.652344 L 87.1875 143.652344 L 87.1875 129.375 C 87.1875 127.820312 88.445312 126.5625 90 126.5625 C 91.554688 126.5625 92.8125 127.820312 92.8125 129.375 L 92.8125 143.652344 L 98.4375 143.652344 Z M 98.4375 71.640625 "/>
<path style=" stroke:none;fill-rule:nonzero;fill:rgb(71.372551%,72.156864%,74.509805%);fill-opacity:1;" d="M 106.867188 146.25 C 106.753906 144.785156 105.535156 143.652344 104.0625 143.652344 L 92.8125 143.652344 L 92.8125 165.9375 L 108.667969 165.9375 L 108.414062 163.125 Z M 106.867188 146.25 "/>
<path style=" stroke:none;fill-rule:nonzero;fill:rgb(53.333336%,52.549022%,57.647061%);fill-opacity:1;" d="M 87.1875 143.652344 L 75.9375 143.652344 C 74.46875 143.652344 73.246094 144.785156 73.132812 146.25 L 72.875 149.0625 L 71.589844 163.125 L 71.332031 165.9375 L 87.1875 165.9375 Z M 87.1875 143.652344 "/>
<path style=" stroke:none;fill-rule:nonzero;fill:rgb(36.078432%,32.941177%,41.568628%);fill-opacity:1;" d="M 85.53125 74.132812 C 88.496094 72.796875 91.503906 72.796875 94.46875 74.132812 C 94.84375 74.300781 95.238281 74.382812 95.621094 74.382812 C 96.695312 74.382812 97.722656 73.765625 98.191406 72.722656 C 98.347656 72.371094 98.429688 72.003906 98.4375 71.640625 C 98.4375 71.632812 98.4375 71.628906 98.4375 71.621094 C 98.445312 71.179688 98.347656 70.75 98.160156 70.355469 C 98.15625 70.347656 98.152344 70.335938 98.148438 70.324219 C 97.871094 69.761719 97.398438 69.285156 96.78125 69.003906 C 92.347656 67.007812 87.652344 67.007812 83.21875 69.003906 C 82.601562 69.285156 82.132812 69.757812 81.851562 70.324219 C 81.65625 70.726562 81.554688 71.167969 81.5625 71.621094 C 81.5625 71.628906 81.5625 71.632812 81.5625 71.640625 C 81.570312 72.003906 81.652344 72.371094 81.808594 72.722656 C 82.445312 74.136719 84.101562 74.769531 85.53125 74.132812 Z M 85.53125 74.132812 "/>
<path style=" stroke:none;fill-rule:nonzero;fill:rgb(53.333336%,52.549022%,57.647061%);fill-opacity:1;" d="M 111.199219 47.8125 L 90 47.8125 L 90 53.4375 C 97.753906 53.4375 104.0625 59.746094 104.0625 67.5 L 104.0625 86.023438 L 109.542969 91.507812 C 109.59375 91.554688 109.640625 91.605469 109.6875 91.65625 L 109.6875 59.0625 L 120.9375 59.0625 L 120.9375 42.1875 C 118.882812 42.1875 116.957031 42.746094 115.296875 43.710938 C 113.601562 44.699219 112.183594 46.113281 111.199219 47.8125 Z M 111.199219 47.8125 "/>
<path style=" stroke:none;fill-rule:nonzero;fill:rgb(53.333336%,52.549022%,57.647061%);fill-opacity:1;" d="M 59.0625 42.1875 C 52.859375 42.1875 47.8125 47.234375 47.8125 53.4375 L 47.8125 59.0625 L 59.0625 59.0625 Z M 59.0625 42.1875 "/>
<path style=" stroke:none;fill-rule:nonzero;fill:rgb(53.333336%,52.549022%,57.647061%);fill-opacity:1;" d="M 92.8125 168.75 C 92.8125 170.304688 91.554688 171.5625 90 171.5625 L 90 180 L 106.875 180 C 107.65625 180 108.40625 179.671875 108.9375 179.097656 C 109.472656 178.523438 109.738281 177.753906 109.679688 176.972656 L 108.667969 165.9375 L 92.8125 165.9375 Z M 92.8125 168.75 "/>
<path style=" stroke:none;fill-rule:nonzero;fill:rgb(36.078432%,32.941177%,41.568628%);fill-opacity:1;" d="M 87.1875 168.75 L 87.1875 165.9375 L 71.332031 165.9375 L 70.320312 176.972656 C 70.261719 177.753906 70.53125 178.523438 71.0625 179.097656 C 71.59375 179.671875 72.34375 180 73.125 180 L 90 180 L 90 171.5625 C 88.445312 171.5625 87.1875 170.304688 87.1875 168.75 Z M 87.1875 168.75 "/>
<path style=" stroke:none;fill-rule:nonzero;fill:rgb(89.803922%,0%,11.764706%);fill-opacity:1;" d="M 90 126.5625 C 88.445312 126.5625 87.1875 127.820312 87.1875 129.375 L 87.1875 168.75 C 87.1875 170.304688 88.445312 171.5625 90 171.5625 C 91.554688 171.5625 92.8125 170.304688 92.8125 168.75 L 92.8125 129.375 C 92.8125 127.820312 91.554688 126.5625 90 126.5625 Z M 90 126.5625 "/>
</g>
</svg>
