<?xml version="1.0" encoding="UTF-8"?>
<svg xmlns="http://www.w3.org/2000/svg" xmlns:xlink="http://www.w3.org/1999/xlink" width="512px" height="512px" viewBox="0 0 512 512" version="1.1">
<g id="surface1">
<path style=" stroke:none;fill-rule:nonzero;fill:rgb(100%,30.980393%,9.803922%);fill-opacity:1;" d="M 316.304688 136 C 319.105469 131.171875 323.132812 127.140625 327.957031 124.332031 C 326.15625 39.953125 262.71875 2.628906 259.976562 1.058594 C 258.742188 0.355469 257.371094 0 256 0 L 256 136 Z M 316.304688 136 "/>
<path style=" stroke:none;fill-rule:nonzero;fill:rgb(89.803922%,0%,11.764706%);fill-opacity:1;" d="M 195.695312 136 L 256 136 L 256 0 C 254.628906 0 253.257812 0.355469 252.023438 1.0625 C 249.28125 2.628906 185.84375 39.953125 184.042969 124.332031 C 188.871094 127.140625 192.894531 131.171875 195.695312 136 Z M 195.695312 136 "/>
<path style=" stroke:none;fill-rule:nonzero;fill:rgb(36.078432%,32.941177%,41.568628%);fill-opacity:1;" d="M 256 152 L 256 136 L 195.695312 136 C 198.429688 140.710938 200 146.175781 200 152 L 200 260.710938 C 200.136719 260.570312 200.269531 260.421875 200.40625 260.285156 L 216 244.691406 L 216 192 C 216 169.945312 233.945312 152 256 152 Z M 256 152 "/>
<path style=" stroke:none;fill-rule:nonzero;fill:rgb(53.333336%,52.549022%,57.647061%);fill-opacity:1;" d="M 344 340.671875 C 344.136719 340.808594 344.261719 340.953125 344.398438 341.089844 L 375.59375 372.28125 C 375.730469 372.421875 375.863281 372.566406 376 372.707031 L 376 168 L 344 168 Z M 344 340.671875 "/>
<path style=" stroke:none;fill-rule:nonzero;fill:rgb(71.372551%,72.156864%,74.509805%);fill-opacity:1;" d="M 376 168 L 376 152 C 376 134.355469 361.648438 120 344 120 L 344 168 Z M 376 168 "/>
<path style=" stroke:none;fill-rule:nonzero;fill:rgb(53.333336%,52.549022%,57.647061%);fill-opacity:1;" d="M 168 168 L 168 340.671875 C 178.3125 330.140625 184 316.257812 184 301.492188 L 184 299.882812 C 184 285.117188 189.6875 271.234375 200 260.710938 L 200 168 Z M 168 168 "/>
<path style=" stroke:none;fill-rule:nonzero;fill:rgb(36.078432%,32.941177%,41.568628%);fill-opacity:1;" d="M 167.601562 341.089844 C 167.738281 340.953125 167.863281 340.808594 168 340.671875 L 168 168 L 136 168 L 136 372.710938 C 136.136719 372.566406 136.265625 372.421875 136.40625 372.285156 Z M 167.601562 341.089844 "/>
<path style=" stroke:none;fill-rule:nonzero;fill:rgb(36.078432%,32.941177%,41.568628%);fill-opacity:1;" d="M 312 168 L 312 260.710938 C 322.316406 271.234375 328 285.117188 328 299.882812 L 328 301.492188 C 328 316.257812 333.6875 330.140625 344 340.671875 L 344 168 Z M 312 168 "/>
<path style=" stroke:none;fill-rule:nonzero;fill:rgb(71.372551%,72.156864%,74.509805%);fill-opacity:1;" d="M 200 168 L 200 152 C 200 146.175781 198.425781 140.710938 195.695312 136 C 192.894531 131.171875 188.871094 127.140625 184.042969 124.332031 C 179.324219 121.582031 173.84375 120 168 120 L 168 168 Z M 200 168 "/>
<path style=" stroke:none;fill-rule:nonzero;fill:rgb(36.078432%,32.941177%,41.568628%);fill-opacity:1;" d="M 144.242188 489.941406 C 145.128906 493.503906 148.332031 496 152 496 L 183.996094 496 C 187.667969 496 190.867188 493.5 191.757812 489.941406 L 198.242188 464 L 137.753906 464 Z M 144.242188 489.941406 "/>
<path style=" stroke:none;fill-rule:nonzero;fill:rgb(36.078432%,32.941177%,41.568628%);fill-opacity:1;" d="M 320.238281 489.941406 C 321.128906 493.503906 324.328125 496 328 496 L 359.996094 496 C 363.667969 496 366.867188 493.5 367.757812 489.941406 L 374.242188 464 L 313.753906 464 Z M 320.238281 489.941406 "/>
<path style=" stroke:none;fill-rule:nonzero;fill:rgb(83.529413%,85.09804%,87.058824%);fill-opacity:1;" d="M 208.023438 416 C 208.339844 411.832031 211.816406 408.613281 215.996094 408.613281 L 216 408.613281 L 216 244.6875 L 200.40625 260.28125 C 200.265625 260.421875 200.136719 260.570312 200 260.707031 C 189.683594 271.234375 184 285.117188 184 299.882812 L 184 301.492188 C 184 316.257812 178.3125 330.140625 168 340.671875 C 167.863281 340.808594 167.738281 340.953125 167.601562 341.089844 L 136.40625 372.28125 C 136.269531 372.421875 136.136719 372.566406 136 372.707031 C 125.6875 383.230469 120 397.113281 120 411.882812 L 120 424 L 207.289062 424 Z M 208.023438 416 "/>
<path style=" stroke:none;fill-rule:nonzero;fill:rgb(100%,30.980393%,9.803922%);fill-opacity:1;" d="M 120 424 L 120 456 C 120 460.417969 123.578125 464 128 464 L 203.628906 464 L 207.289062 424 Z M 120 424 "/>
<path style=" stroke:none;fill-rule:nonzero;fill:rgb(83.529413%,85.09804%,87.058824%);fill-opacity:1;" d="M 376 372.707031 C 375.863281 372.566406 375.734375 372.421875 375.59375 372.28125 L 344.398438 341.089844 C 344.261719 340.953125 344.136719 340.808594 344 340.671875 C 333.6875 330.140625 328 316.257812 328 301.492188 L 328 299.882812 C 328 285.117188 322.316406 271.234375 312 260.710938 C 311.863281 260.570312 311.734375 260.421875 311.59375 260.285156 L 296 244.691406 L 296 408.613281 L 296.003906 408.613281 C 300.183594 408.613281 303.660156 411.832031 303.980469 416.003906 L 304.710938 424.003906 L 392 424.003906 L 392 411.886719 C 392 397.117188 386.316406 383.234375 376 372.707031 Z M 376 372.707031 "/>
<path style=" stroke:none;fill-rule:nonzero;fill:rgb(100%,30.980393%,9.803922%);fill-opacity:1;" d="M 308.371094 464 L 384 464 C 388.421875 464 392 460.417969 392 456 L 392 424 L 304.710938 424 Z M 308.371094 464 "/>
<path style=" stroke:none;fill-rule:nonzero;fill:rgb(89.019608%,90.196079%,91.37255%);fill-opacity:1;" d="M 256 152 C 233.945312 152 216 169.945312 216 192 L 216 408.613281 L 232 408.613281 L 232 203.78125 C 232 203.757812 232 203.742188 232 203.722656 C 231.980469 202.4375 232.265625 201.171875 232.828125 200.035156 C 233.617188 198.429688 234.953125 197.074219 236.710938 196.28125 C 249.320312 190.601562 262.679688 190.601562 275.289062 196.28125 C 277.046875 197.074219 278.382812 198.425781 279.175781 200.035156 C 279.234375 200.046875 279.242188 200.078125 279.210938 200.125 C 279.746094 201.242188 280.019531 202.46875 280 203.722656 C 280 203.742188 280 203.757812 280 203.78125 L 280 408.613281 L 296 408.613281 L 296 192 C 296 169.945312 278.054688 152 256 152 Z M 256 152 "/>
<path style=" stroke:none;fill-rule:nonzero;fill:rgb(83.529413%,85.09804%,87.058824%);fill-opacity:1;" d="M 280 203.78125 C 279.976562 204.8125 279.75 205.859375 279.296875 206.859375 C 277.960938 209.820312 275.046875 211.578125 271.992188 211.578125 C 270.898438 211.578125 269.78125 211.347656 268.710938 210.867188 C 260.273438 207.0625 251.726562 207.0625 243.289062 210.867188 C 239.21875 212.675781 234.515625 210.878906 232.703125 206.859375 C 232.253906 205.859375 232.027344 204.8125 232 203.78125 L 232 408.613281 L 248 408.613281 L 248 368 C 248 363.582031 251.582031 360 256 360 C 260.417969 360 264 363.582031 264 368 L 264 408.613281 L 280 408.613281 Z M 280 203.78125 "/>
<path style=" stroke:none;fill-rule:nonzero;fill:rgb(71.372551%,72.156864%,74.509805%);fill-opacity:1;" d="M 303.980469 416 C 303.660156 411.832031 300.183594 408.613281 296.003906 408.613281 L 264 408.613281 L 264 472 L 309.105469 472 L 308.371094 464 L 304.710938 424 Z M 303.980469 416 "/>
<path style=" stroke:none;fill-rule:nonzero;fill:rgb(53.333336%,52.549022%,57.647061%);fill-opacity:1;" d="M 248 408.613281 L 216 408.613281 C 211.820312 408.613281 208.34375 411.832031 208.023438 416 L 207.289062 424 L 203.628906 464 L 202.898438 472 L 248 472 Z M 248 408.613281 "/>
<path style=" stroke:none;fill-rule:nonzero;fill:rgb(36.078432%,32.941177%,41.568628%);fill-opacity:1;" d="M 243.289062 210.867188 C 251.726562 207.0625 260.273438 207.0625 268.710938 210.867188 C 269.78125 211.347656 270.898438 211.578125 271.992188 211.578125 C 275.046875 211.578125 277.960938 209.820312 279.296875 206.859375 C 279.75 205.859375 279.976562 204.8125 280 203.78125 C 280 203.757812 280 203.742188 280 203.722656 C 280.023438 202.46875 279.746094 201.242188 279.214844 200.125 C 279.199219 200.097656 279.191406 200.066406 279.175781 200.035156 C 278.382812 198.429688 277.050781 197.074219 275.289062 196.28125 C 262.679688 190.601562 249.320312 190.601562 236.710938 196.28125 C 234.953125 197.074219 233.621094 198.425781 232.828125 200.035156 C 232.265625 201.171875 231.980469 202.4375 232 203.722656 C 232 203.742188 232 203.757812 232 203.78125 C 232.027344 204.8125 232.253906 205.859375 232.703125 206.859375 C 234.515625 210.878906 239.21875 212.675781 243.289062 210.867188 Z M 243.289062 210.867188 "/>
<path style=" stroke:none;fill-rule:nonzero;fill:rgb(53.333336%,52.549022%,57.647061%);fill-opacity:1;" d="M 316.304688 136 L 256 136 L 256 152 C 278.054688 152 296 169.945312 296 192 L 296 244.691406 L 311.59375 260.285156 C 311.734375 260.421875 311.863281 260.570312 312 260.710938 L 312 168 L 344 168 L 344 120 C 338.15625 120 332.675781 121.582031 327.957031 124.332031 C 323.132812 127.140625 319.105469 131.171875 316.304688 136 Z M 316.304688 136 "/>
<path style=" stroke:none;fill-rule:nonzero;fill:rgb(53.333336%,52.549022%,57.647061%);fill-opacity:1;" d="M 168 120 C 150.351562 120 136 134.355469 136 152 L 136 168 L 168 168 Z M 168 120 "/>
<path style=" stroke:none;fill-rule:nonzero;fill:rgb(53.333336%,52.549022%,57.647061%);fill-opacity:1;" d="M 264 480 C 264 484.417969 260.417969 488 256 488 L 256 512 L 304 512 C 306.226562 512 308.359375 511.070312 309.867188 509.4375 C 311.382812 507.800781 312.148438 505.609375 311.976562 503.386719 L 309.101562 472 L 264 472 Z M 264 480 "/>
<path style=" stroke:none;fill-rule:nonzero;fill:rgb(36.078432%,32.941177%,41.568628%);fill-opacity:1;" d="M 248 480 L 248 472 L 202.898438 472 L 200.023438 503.386719 C 199.851562 505.609375 200.617188 507.800781 202.132812 509.4375 C 203.640625 511.070312 205.773438 512 208 512 L 256 512 L 256 488 C 251.582031 488 248 484.417969 248 480 Z M 248 480 "/>
<path style=" stroke:none;fill-rule:nonzero;fill:rgb(89.803922%,0%,11.764706%);fill-opacity:1;" d="M 256 360 C 251.582031 360 248 363.582031 248 368 L 248 480 C 248 484.417969 251.582031 488 256 488 C 260.417969 488 264 484.417969 264 480 L 264 368 C 264 363.582031 260.417969 360 256 360 Z M 256 360 "/>
</g>
</svg>
