<?xml version="1.0" encoding="UTF-8"?>
<svg xmlns="http://www.w3.org/2000/svg" xmlns:xlink="http://www.w3.org/1999/xlink" width="192px" height="192px" viewBox="0 0 192 192" version="1.1">
<g id="surface1">
<path style=" stroke:none;fill-rule:nonzero;fill:rgb(100%,30.980393%,9.803922%);fill-opacity:1;" d="M 118.613281 51 C 119.664062 49.1875 121.175781 47.675781 122.984375 46.625 C 122.308594 14.984375 98.519531 0.984375 97.492188 0.398438 C 97.027344 0.132812 96.515625 0 96 0 L 96 51 Z M 118.613281 51 "/>
<path style=" stroke:none;fill-rule:nonzero;fill:rgb(89.803922%,0%,11.764706%);fill-opacity:1;" d="M 73.386719 51 L 96 51 L 96 0 C 95.484375 0 94.972656 0.132812 94.507812 0.398438 C 93.480469 0.984375 69.691406 14.984375 69.015625 46.625 C 70.824219 47.675781 72.335938 49.1875 73.386719 51 Z M 73.386719 51 "/>
<path style=" stroke:none;fill-rule:nonzero;fill:rgb(36.078432%,32.941177%,41.568628%);fill-opacity:1;" d="M 96 57 L 96 51 L 73.386719 51 C 74.410156 52.765625 75 54.816406 75 57 L 75 97.765625 C 75.050781 97.714844 75.101562 97.660156 75.152344 97.605469 L 81 91.757812 L 81 72 C 81 63.730469 87.730469 57 96 57 Z M 96 57 "/>
<path style=" stroke:none;fill-rule:nonzero;fill:rgb(53.333336%,52.549022%,57.647061%);fill-opacity:1;" d="M 129 127.753906 C 129.050781 127.804688 129.097656 127.859375 129.148438 127.910156 L 140.847656 139.605469 C 140.898438 139.65625 140.949219 139.714844 141 139.765625 L 141 63 L 129 63 Z M 129 127.753906 "/>
<path style=" stroke:none;fill-rule:nonzero;fill:rgb(71.372551%,72.156864%,74.509805%);fill-opacity:1;" d="M 141 63 L 141 57 C 141 50.382812 135.617188 45 129 45 L 129 63 Z M 141 63 "/>
<path style=" stroke:none;fill-rule:nonzero;fill:rgb(53.333336%,52.549022%,57.647061%);fill-opacity:1;" d="M 63 63 L 63 127.753906 C 66.867188 123.804688 69 118.597656 69 113.058594 L 69 112.457031 C 69 106.917969 71.132812 101.714844 75 97.765625 L 75 63 Z M 63 63 "/>
<path style=" stroke:none;fill-rule:nonzero;fill:rgb(36.078432%,32.941177%,41.568628%);fill-opacity:1;" d="M 62.851562 127.910156 C 62.902344 127.859375 62.949219 127.804688 63 127.753906 L 63 63 L 51 63 L 51 139.765625 C 51.050781 139.714844 51.101562 139.660156 51.152344 139.605469 Z M 62.851562 127.910156 "/>
<path style=" stroke:none;fill-rule:nonzero;fill:rgb(36.078432%,32.941177%,41.568628%);fill-opacity:1;" d="M 117 63 L 117 97.765625 C 120.867188 101.714844 123 106.917969 123 112.457031 L 123 113.058594 C 123 118.597656 125.132812 123.804688 129 127.753906 L 129 63 Z M 117 63 "/>
<path style=" stroke:none;fill-rule:nonzero;fill:rgb(71.372551%,72.156864%,74.509805%);fill-opacity:1;" d="M 75 63 L 75 57 C 75 54.816406 74.410156 52.765625 73.386719 51 C 72.335938 49.1875 70.824219 47.675781 69.015625 46.625 C 67.246094 45.59375 65.191406 45 63 45 L 63 63 Z M 75 63 "/>
<path style=" stroke:none;fill-rule:nonzero;fill:rgb(36.078432%,32.941177%,41.568628%);fill-opacity:1;" d="M 54.089844 183.726562 C 54.425781 185.0625 55.625 186 57 186 L 69 186 C 70.375 186 71.574219 185.0625 71.910156 183.726562 L 74.339844 174 L 51.660156 174 Z M 54.089844 183.726562 "/>
<path style=" stroke:none;fill-rule:nonzero;fill:rgb(36.078432%,32.941177%,41.568628%);fill-opacity:1;" d="M 120.089844 183.726562 C 120.421875 185.0625 121.625 186 123 186 L 135 186 C 136.375 186 137.574219 185.0625 137.910156 183.726562 L 140.339844 174 L 117.65625 174 Z M 120.089844 183.726562 "/>
<path style=" stroke:none;fill-rule:nonzero;fill:rgb(83.529413%,85.09804%,87.058824%);fill-opacity:1;" d="M 78.007812 156 C 78.128906 154.4375 79.429688 153.230469 81 153.230469 L 81 91.757812 L 75.152344 97.605469 C 75.101562 97.65625 75.050781 97.714844 75 97.765625 C 71.132812 101.710938 69 106.917969 69 112.457031 L 69 113.058594 C 69 118.597656 66.867188 123.804688 63 127.75 C 62.949219 127.804688 62.902344 127.859375 62.851562 127.910156 L 51.152344 139.605469 C 51.101562 139.65625 51.050781 139.710938 51 139.765625 C 47.132812 143.710938 45 148.917969 45 154.457031 L 45 159 L 77.734375 159 Z M 78.007812 156 "/>
<path style=" stroke:none;fill-rule:nonzero;fill:rgb(100%,30.980393%,9.803922%);fill-opacity:1;" d="M 45 159 L 45 171 C 45 172.65625 46.34375 174 48 174 L 76.359375 174 L 77.734375 159 Z M 45 159 "/>
<path style=" stroke:none;fill-rule:nonzero;fill:rgb(83.529413%,85.09804%,87.058824%);fill-opacity:1;" d="M 141 139.765625 C 140.949219 139.710938 140.898438 139.65625 140.847656 139.605469 L 129.148438 127.910156 C 129.097656 127.859375 129.050781 127.804688 129 127.753906 C 125.132812 123.804688 123 118.597656 123 113.058594 L 123 112.457031 C 123 106.917969 120.867188 101.714844 117 97.765625 C 116.949219 97.714844 116.902344 97.660156 116.847656 97.605469 L 111 91.757812 L 111 153.230469 C 112.570312 153.230469 113.871094 154.4375 113.992188 156 L 114.265625 159 L 147 159 L 147 154.457031 C 147 148.917969 144.867188 143.710938 141 139.765625 Z M 141 139.765625 "/>
<path style=" stroke:none;fill-rule:nonzero;fill:rgb(100%,30.980393%,9.803922%);fill-opacity:1;" d="M 115.640625 174 L 144 174 C 145.660156 174 147 172.65625 147 171 L 147 159 L 114.265625 159 Z M 115.640625 174 "/>
<path style=" stroke:none;fill-rule:nonzero;fill:rgb(89.019608%,90.196079%,91.37255%);fill-opacity:1;" d="M 96 57 C 87.730469 57 81 63.730469 81 72 L 81 153.230469 L 87 153.230469 L 87 76.417969 C 87 76.410156 87 76.402344 87 76.394531 C 86.992188 75.914062 87.097656 75.441406 87.308594 75.011719 C 87.605469 74.410156 88.105469 73.902344 88.765625 73.605469 C 93.496094 71.476562 98.503906 71.476562 103.234375 73.605469 C 103.894531 73.902344 104.394531 74.410156 104.691406 75.011719 C 104.710938 75.015625 104.714844 75.03125 104.703125 75.046875 C 104.902344 75.464844 105.007812 75.925781 105 76.394531 C 105 76.402344 105 76.410156 105 76.417969 L 105 153.230469 L 111 153.230469 L 111 72 C 111 63.730469 104.269531 57 96 57 Z M 96 57 "/>
<path style=" stroke:none;fill-rule:nonzero;fill:rgb(83.529413%,85.09804%,87.058824%);fill-opacity:1;" d="M 105 76.417969 C 104.992188 76.804688 104.90625 77.195312 104.738281 77.574219 C 104.234375 78.683594 103.144531 79.34375 101.996094 79.34375 C 101.585938 79.34375 101.167969 79.257812 100.765625 79.074219 C 97.601562 77.648438 94.398438 77.648438 91.234375 79.074219 C 89.707031 79.753906 87.945312 79.082031 87.265625 77.574219 C 87.09375 77.195312 87.007812 76.804688 87 76.417969 L 87 153.230469 L 93 153.230469 L 93 138 C 93 136.34375 94.34375 135 96 135 C 97.65625 135 99 136.34375 99 138 L 99 153.230469 L 105 153.230469 Z M 105 76.417969 "/>
<path style=" stroke:none;fill-rule:nonzero;fill:rgb(71.372551%,72.156864%,74.509805%);fill-opacity:1;" d="M 113.992188 156 C 113.871094 154.4375 112.570312 153.230469 111 153.230469 L 99 153.230469 L 99 177 L 115.914062 177 L 115.640625 174 L 114.265625 159 Z M 113.992188 156 "/>
<path style=" stroke:none;fill-rule:nonzero;fill:rgb(53.333336%,52.549022%,57.647061%);fill-opacity:1;" d="M 93 153.230469 L 81 153.230469 C 79.433594 153.230469 78.128906 154.4375 78.007812 156 L 77.734375 159 L 76.359375 174 L 76.085938 177 L 93 177 Z M 93 153.230469 "/>
<path style=" stroke:none;fill-rule:nonzero;fill:rgb(36.078432%,32.941177%,41.568628%);fill-opacity:1;" d="M 91.234375 79.074219 C 94.398438 77.648438 97.601562 77.648438 100.765625 79.074219 C 101.167969 79.253906 101.585938 79.34375 101.996094 79.34375 C 103.144531 79.34375 104.234375 78.683594 104.738281 77.574219 C 104.90625 77.195312 104.992188 76.804688 105 76.417969 C 105 76.410156 105 76.402344 105 76.394531 C 105.007812 75.925781 104.90625 75.464844 104.703125 75.046875 C 104.699219 75.035156 104.695312 75.023438 104.691406 75.011719 C 104.394531 74.410156 103.894531 73.902344 103.234375 73.605469 C 98.503906 71.476562 93.496094 71.476562 88.765625 73.605469 C 88.109375 73.902344 87.605469 74.410156 87.308594 75.011719 C 87.101562 75.441406 86.992188 75.914062 87 76.394531 C 87 76.402344 87 76.410156 87 76.417969 C 87.011719 76.804688 87.09375 77.195312 87.265625 77.574219 C 87.941406 79.082031 89.707031 79.753906 91.234375 79.074219 Z M 91.234375 79.074219 "/>
<path style=" stroke:none;fill-rule:nonzero;fill:rgb(53.333336%,52.549022%,57.647061%);fill-opacity:1;" d="M 118.613281 51 L 96 51 L 96 57 C 104.269531 57 111 63.730469 111 72 L 111 91.757812 L 116.847656 97.605469 C 116.898438 97.660156 116.949219 97.714844 117 97.765625 L 117 63 L 129 63 L 129 45 C 126.808594 45 124.753906 45.59375 122.984375 46.625 C 121.175781 47.675781 119.664062 49.1875 118.613281 51 Z M 118.613281 51 "/>
<path style=" stroke:none;fill-rule:nonzero;fill:rgb(53.333336%,52.549022%,57.647061%);fill-opacity:1;" d="M 63 45 C 56.382812 45 51 50.382812 51 57 L 51 63 L 63 63 Z M 63 45 "/>
<path style=" stroke:none;fill-rule:nonzero;fill:rgb(53.333336%,52.549022%,57.647061%);fill-opacity:1;" d="M 99 180 C 99 181.65625 97.65625 183 96 183 L 96 192 L 114 192 C 114.835938 192 115.636719 191.652344 116.199219 191.039062 C 116.769531 190.425781 117.054688 189.601562 116.992188 188.769531 L 115.914062 177 L 99 177 Z M 99 180 "/>
<path style=" stroke:none;fill-rule:nonzero;fill:rgb(36.078432%,32.941177%,41.568628%);fill-opacity:1;" d="M 93 180 L 93 177 L 76.085938 177 L 75.007812 188.769531 C 74.945312 189.605469 75.230469 190.425781 75.800781 191.039062 C 76.363281 191.652344 77.164062 192 78 192 L 96 192 L 96 183 C 94.34375 183 93 181.65625 93 180 Z M 93 180 "/>
<path style=" stroke:none;fill-rule:nonzero;fill:rgb(89.803922%,0%,11.764706%);fill-opacity:1;" d="M 96 135 C 94.34375 135 93 136.34375 93 138 L 93 180 C 93 181.65625 94.34375 183 96 183 C 97.65625 183 99 181.65625 99 180 L 99 138 C 99 136.34375 97.65625 135 96 135 Z M 96 135 "/>
</g>
</svg>
